<svg fill="currentColor" xmlns="http://www.w3.org/2000/svg" viewBox="0 0 128 128" width="1em" height="1em"><path fill="currentColor" d="M96 1a13 13 0 0 0-4 1l-3 1a87 87 0 0 1-2 2 429 429 0 0 1-3 3 19 19 0 0 0-3 3v1h-1a4 4 0 0 0-1 2v1a3 3 0 0 0 0 1l-1 1a61 61 0 0 0-19-2 4 4 0 0 0-1 0h-1a58 58 0 0 0-20 5 2 2 0 0 1-1-1l-1-1a25 25 0 0 0-3-4l-2-2-8-2h-1a4 4 0 0 0-2 1h-1l-5 5-3 8-1 6h1l-1 1a4 4 0 0 0 0 1l1 1v2l1 5v1a10 10 0 0 0-2 3l-1 1-1 2a49 49 0 0 0-6 18 6 6 0 0 0-1 3 29 29 0 0 0 0 5v7a56 56 0 0 0 3 9v1a54 54 0 0 0 3 8l2 3a46 46 0 0 0 3 4l1 1 2 2 1 2a73 73 0 0 1 3 3l3 2a55 55 0 0 0 5 3 77 77 0 0 0 4 3l3 1 6 2 3 1a8 8 0 0 1 2 0l2 1 9 1a30 30 0 0 0 4 0 52 52 0 0 0 8 0l3-1a100 100 0 0 1 3-1 28 28 0 0 1 4-1 183 183 0 0 1 5-2l2-1h1l4-2 1-1a5 5 0 0 0 1 0 29 29 0 0 0 4-3 65 65 0 0 0 3-2 40 40 0 0 0 5-5 8 8 0 0 1 2-2 32 32 0 0 0 2-2 54 54 0 0 0 8-14l1-1v-1a4 4 0 0 1 0-1v-1a3 3 0 0 1 1-1v-2a2 2 0 0 0 1-2 4 4 0 0 0 0-2l1-5v-3a14 14 0 0 1 0-3 4 4 0 0 1 0-2v-1a4 4 0 0 1 0-2 6 6 0 0 0 3-1 21 21 0 0 0 2-1 3 3 0 0 0 1-2l1-1v-1h1a9 9 0 0 0 1-5 1 1 0 0 0 0-1 10 10 0 0 0-1-3 1 1 0 0 0-1-1 1 1 7 0 0-1-1 16 16 0 0 1-2-1l-2-1h-3a7 7 0 0 0-2 1 25 25 0 0 0-3 1 59 59 0 0 0-10-14v-1l1-4 3-10-1-9a4 4 0 0 0-1-1l-5-5a6 6 0 0 0-2-1 13 13 0 0 0-2 0Zm0 2a8 8 0 0 1 1 0 8 8 0 0 1 1 0 8 8 0 0 1 1 1 8 8 0 0 0-1-1 8 8 0 0 0-2 0zm6 3a1 1 0 0 1 0 1 1 1 0 0 0 0-1m-8 2a9 9 0 0 0-1 0h1zm1 0a9 9 0 0 1 1 0 8 8 0 0 1 3 1 8 8 0 0 0-3-1 9 9 0 0 0-1 0m-4 0a8 8 0 0 0-2 2l-2 1a14 14 0 0 0-3 3 14 14 0 0 0-1 3l-1 2 1-2 1-3a14 14 0 0 1 3-3l2-1a8 8 0 0 1 2-2zm3 1 4 1 1 1a22 22 0 0 1 1 4v5a1 1 59 0 1 0 1v1l-1 1v1a1 1 0 0 0 0 1l-1 1a2 2 0 0 0 0 1q0 1 0 0-7-5-15-8l2-2q2-5 7-7l2-1m-72 3h-1 1m78 0zm1 1q1 0 0 0 1 0 0 0zm-76 0zm2 1h1zm79 0zm0 0zm0 1zm-5 0v1-1m5 0v1a16 16 0 0 0 0-1zm-26 0q0 1 0 0 0 1 0 0zm25 2zm0 0h-1 1m-57 0-3 1 3-1zm58 0h-1 1m0 0v2a8 8 0 0 1-1 2v1-1l1-2a3 3 0 0 0 0-2m-28 0a1 1 0 0 1 0 1 1 1 0 0 0 0-1zm-17 0zm-3 1zm4 0zm-2 0zm-5 0zm1 0h1-1m11 0zm-2 0zm4 0zm-15 0h-1 1m4 0a25 25 0 0 0-2 0 25 25 0 0 0 1 0h1zm20 0h1l1 1a5 5 0 0 0-1-1 22 22 0 0 0-1 0m-28 0zm0 0zm7 1a52 52 0 0 0-10 1l-4 1a12 12 0 0 0-1 1 12 12 0 0 1 1-1l4-1a52 52 0 0 1 10-1zm-11 0zm-33 0v1zm68 1zm-37 0zm60 0v1a6 6 0 0 1 0-1m-61 0zm-20 1h1a2 2 0 0 0 1 0l5 3v1l3 3 2 3a3 3 0 0 1-1 2v-1h-1v2l-1 1h-1v-1h-1a5 5 0 0 1 1 2 9 9 0 0 1-2 2h-1v1l-2 2a2 2 0 0 1-1-1 3 3 0 0 0 0-1h-1a2 2 0 0 0 0 1v1l1 1-2 1a3 3 0 0 0-1-1v1l1 1-2 1a18 18 0 0 1-1-3 4 4 0 0 1-1-1v-1a1 1 0 0 1-1 0v-1a4 4 0 0 1 0-1 4 4 0 0 0 0 1v1h1a4 4 0 0 0 0-1 3 3 0 0 1-1-1 20 20 0 0 0 0-3v-2a3 3 0 0 0 0-1v-2a2 2 0 0 0 0-2 2 2 0 0 1 0-1 18 18 0 0 1 1-3 4 4 0 0 1 2-1 23 23 0 0 1 2-2m6 0v1h1-1v-1m28 0 1 1a7 7 0 0 1 1 2l1 1v1h-1a38 38 0 0 0 0-1 12 12 0 0 1-3-3v-1h1m-16 0zm0 1zm-2 0zm-1 0zm-1 0v1-1l-2 1zm49 1h1a34 34 0 0 1 3 1l4 2a253 253 0 0 0-4-2 34 34 0 0 0-2-1 34 34 0 0 0-1 0zm14 0zm-70 0v1-1m0 0v1-1m8 0zm1 0v1l1 1-1-1v-1m-9 1 2 1-2-1zm8 0zm63 0zm-25 0v1l1 4v2h-1a7 7 0 0 1 0-3 23 23 0 0 1-1-3l1-1zm16 0a17 17 0 0 1 4 3 17 17 0 0 0-4-3m-45 0 1 2 1 1 1 1v1a7 7 0 0 1-2-1l-2-3 1-1m52 0zm-61 1a1 1 0 0 0 1 0 1 1 0 0 1-1 0zm-26 0-1 3 1-3m89 1a4 4 0 0 0 1 1 4 4 0 0 1-1-1m-68 0v1l1 1a3 3 0 0 1 1 1 3 3 0 0 0-1-1 5 5 0 0 0-1-1v-1m66 1zm-32 1v1l1 1v2l1 2a1 1 0 0 1-1-1 9 9 0 0 1-1-1 7 7 0 0 1-1-4 1 1 0 0 1 1 0m-56 0zm6 0a1 1 0 0 1 0 1 1 1 0 0 0 0-1m0 0v1-1m60 1-1 1h1v-1m23 1 2 1-2-1zm2 0zm-67 0a1 1 0 0 1 1 0 1 1 0 0 0-1 0m22 0 1 1 1 1a1 1 30 0 0 0 1l2 2-1 1a24 24 0 0 1-3-3v-1l-1-1 1-1zm-40 2zm16 0a1 1 0 0 0 0 1 1 1 0 0 1 0-1m-16 2zm84 1h1l1 4v2h-3q-2-2 0-5l1-1m-23 1v1-1m-60 0zm87 0 1 2 3 3 1 2a30 30 0 0 0-1-2 182 182 0 0 1-3-3 37 37 0 0 0-1-2m-88 0a1 1 0 0 1 0 1 1 1 0 0 0 0-1m66 1h2l1 1h3l2 1 3 2 3 2a27 27 0 0 1 6 7l1-1v1h-1a8 8 0 0 0 1 2 38 38 0 0 1 3 8v5q-1 12-10 20-6 6-14 7a1 1 0 0 1-1 0h-7a11 11 0 0 0-3-1 28 28 0 0 0-2-1 23 23 0 0 1-7-4q-6-6-9-14v-2a4 4 0 0 1 0-1v-1l-1-1q-1 0 0 0 0-1 0 0h1l-1-2v-1l1-2a19 19 0 0 1 1-4 22 22 0 0 1 2-7q1 0 0 0l1-2a16 16 0 0 1 4-4l2-2 2-1a9 9 0 0 1 2-1l5-2a10 10 0 0 0 2-1l8-1 3 1a9 9 0 0 0-1-1 8 8 0 0 0-2 0m-32 0a31 31 0 0 0 3 3v1l1 1h-1l-3-2-1-2 1-1zm17 3h1-2a2 2 0 0 1 1 0m-1 0a1 1 0 0 0-1 0 1 1 0 0 1 1 0zm-27 1h1l1 1 1 1 2 1v1q-2 0-3-2a3 3 0 0 1-1-1h-1v-1zm25 1h-1 1zm-53 1a7 7 0 0 1-1 1 2 2 0 0 1 0 2v-2l1-1m49 1zm-1 0 1 1-1-1zm59 1q3 0 5 2l1 1v2l1 2h-1l1 1v1h-1v2l-1 1h1v1h-1l-1 1v1a1 1 0 0 0-1 0l-1 1-1 1h-3l-3-1-1-1q-3-3-3-7l1-1v-1a1 1 0 0 1 1-1v-1l-1 1v1-1l1-1h1a4 4 0 0 1 1-2q2-2 5-2zm-39 2a6 6 0 0 0-1 0q-4 0-8 3l-1 3v1a3 3 0 0 0 1 1h7v7h1v4h-2a3 3 0 0 0-2 0 3 3 0 0 0-1 0h-1a28 28 0 0 0-3 0l-2-1h-1l-2 1-1 1a2 2 0 0 0 0 1 11 11 0 0 1-1 1 2 2 0 0 0-1 1l1 2v1h1v1a9 9 0 0 0 2 1l1 1 4 1v1a47 47 0 0 0 0 5l1 4 1 1q2 2 4 1l1-1 1-1a7 7 0 0 0 1-4 13 13 0 0 0 0-5h-1v-1q1 0 0 0l2-1h1a3 3 0 0 1 2 0l1-1h1a219 219 0 0 0 4-2 5 5 0 0 0 1 0l1-1 1-1v-1a19 19 0 0 0 3-3 31 31 0 0 1 1-2v-1h-1 1v-2l-1-1-2-1h-1l-4 2a2 2 0 0 1-1 0l-3 2a34 34 0 0 0-3 1h-1l-1 1a2 2 0 0 1 0-2v-2a28 28 0 0 0-1-6l-1-1h3l2-2q2-1 2-3l-1-2-2-1a11 11 0 0 0-1 0 5 5 0 0 0-1 0m11 26a5 5 0 0 1-1 0 219 219 0 0 1-4 2l-1 1v1l1-1 2-1a30 30 0 0 0 5-3l-2 1M10 47zm5 0v1a1 1 0 0 0 0-1zm-6 1zm0 1zm71 0zm-70 0zm-1 0v1-1zm74 0zM9 50a1 1 0 0 1 0 1H8a2 2 0 0 0 1 0v-1m0 0v1-1m31 0 2 2v2a2 2 0 0 1 0 2 5 5 0 0 1-1 2h-1l-1-1h-1l-1-4a3 3 0 0 0 1-1v-1a9 9 0 0 1 2-1m69 1v4-1a4 4 0 0 1 0-1v-2zm-30 1h-1 1m-23 0zm19 0a1 1 0 0 0 0 1 1 1 0 0 1 0-1zm0 1zM5 54zm2 1zm-1 1v3-3zm101 1a1 1 0 0 1 0 1 1 1 0 0 0 0-1zm19 0zm-19 0h1-1m-54 2h1-1m55 0v1a13 13 0 0 1 1 5v2-2a13 13 0 0 0-1-5v-1M6 59zm104 0 2 2-2-2zm0 1zM6 60zm90 1h-1 1m-3 0a4 4 0 0 0-1 0 4 4 0 0 0-1 1 4 4 0 0 1 1-1 4 4 0 0 1 1 0m-40 0zm62 1 2 1a28 28 0 0 0-2-1m-26 0a12 12 0 0 1-1 1l1-1m3 1zm-1 1a5 5 0 0 0 0 1 5 5 0 0 1 0-1m-39 0v1-1m39 0zm-4 0a1 1 0 0 0-1 0 1 1 0 0 1 1 0zm-8 0zm8 1h1-1zm1 0zm0 0zm-20 1zm-1 0zm11 0zm15 0zm-16 0zm-42 0 4 1h1v1l1 1 1 1v1a4 4 0 0 1 1 2v3a40 40 0 0 1 0 2l-1 1-2 3a1 1 0 0 0-1 0l-1 1h-3v1h-1l-1-1-1 1a3 3 0 0 1-2-1 20 20 0 0 1-1-1 2 2 0 0 1-1 0v-1h-1l-1-2v-1h-1a1 1 0 0 1 1-1v-2a2 2 0 0 1 0-2l1-1q0-2 3-4v-1l4-1h1m54 0v1-1m1 0 1 1zm-13 0zm0 1zm18 0zm0 0zm-11 0zm3 0a2 2 0 0 0 0 1 2 2 0 0 0-1 0v1h1q1 0 0 0a3 3 0 0 0 0-1 3 3 0 0 1 0 1h-1v-1a2 2 0 0 1 1-1m-17 0zm20 0a2 2 0 0 0 0 1 2 2 0 0 1 0-1zm1 0a1 1 0 0 1 0 1 1 1 0 0 0 0-1m-18 0a1 1 0 0 0 1 0 1 1 0 0 1-1 0m2 0v1-1m6 0a7 7 0 0 0 0 1v-1zm-11 0a1 1 0 0 0-1 1 1 1 0 0 1 1-1m-3 1zm22 0h-1a1 1 0 0 1 1 0m-20 0zm9 0h1-1zm-12 0zm7 0zm20 0zm-26 0zm12 0zm-2 0a1 1 0 0 1 1 0v1-1a1 1 0 0 0-1 0zm2 0a2 2 0 0 0-1 1 2 2 0 0 1 1-1m1 0a14 14 0 0 1-1 2 14 14 0 0 0 1-2m-11 0v1-1zm5 0zm19 1zm-6 0h-1 1m-16 0h-1 1zm5 0zm-7 0a1 1 0 0 0-1 1h1a2 2 0 0 1-1 0 1 1 0 0 1 1-1zm3 0v1zm0 1zm45 0v2-2m-36 0a10 10 0 0 1 0 1 10 10 0 0 1 0-1m-2 0a7 7 0 0 0 0 2h-1 1a7 7 0 0 1 0-2zm11 0a1 1 42 0 0 0 1 1 1 42 0 0 1 0 1 1 42 0 1-1 0 1 1 42 0 1 0-1m-20 1h-1zm-2 0a13 13 0 0 0-1 1 13 13 0 0 1 1-1zm1 0zm-2 0v1-1m2 0zm2 0zm6 0zm-2 0a2 2 0 0 0-1 1 2 2 0 0 1 1-1zm-1 0a6 6 0 0 1 0 1 1 1 0 0 1-1 1 1 1 0 0 0 1-1 6 6 0 0 0 0-1m-5 1a2 2 0 0 0-1 0 2 2 0 0 0 1 0m16 0zm-14 0h-1 1m14 0a1 1 42 0 0 0 1 1 1 42 0 1 0-1m-42 0zm10 0-1 1 1-1m13 0a1 1 0 0 1-1 1 1 1 0 0 0 1-1m4 1zm-17 0zm23 0zm9 0zm0 0zm-31 0v1-1m15 0v1zm7 1zm-2 0zm0 0a4 4 0 0 0-1 0h1m-7 0zm4 0zm-2 0zm-16 0v1-1m19 1zm3 0v2q1 1 0 0v5l1 1a11 11 0 0 1 0-3v-4a1 1 0 0 0-1 0v-1l2 1h1v1l1 5v3a5 5 0 0 1-1 2l-1 1a3 3 0 0 1-2 0l-1-1-1-2a5 5 0 0 1-1-2v-5a4 4 0 0 1 0-1v-1l3-1m8 1a2 2 0 0 0-1 0l-2 1q-1 0 0 0h4v-1h-1zm-3 4zm36 2-1 2 1-2m-44 0h-1 1m29 2-1 1 1-1m-68 1zm66 1a23 23 0 0 1-3 2l-2 1a31 31 0 0 0 2-1 23 23 0 0 0 3-2zm15 3h-1v1-1h1m-57 1a8 8 0 0 1 1 1 8 8 0 0 0-1-1m42 0-2 2a17 17 0 0 1-2 1l2-1 2-2m-43 0q1 0 0 0l-1 3a3 3 0 0 1-1 2 1 1 0 0 1-1 0v-1l1-1 1-3h1zm57 1-1 1h1-1l1-1m-54 1zm-14 0a3 3 0 0 0-1 2h-1a4 4 0 0 1-1 3v-2l1-2 2-1zm32 1h4-4m35 0a3 3 0 0 0-1 1l1-1M7 95v1-1zm23 0v1a10 10 0 0 0-1 1 8 8 0 0 1-1 1 33 33 0 0 0-1 3h-1v-1l4-4v-1m57 1a35 35 0 0 1-5 1h1l-1 1v3h-2v-1a1 1 0 0 1 1 0v-1a5 5 0 0 0 1-2 35 35 0 0 0 5-1m9 1h1v1h-1v-1zm-29 1h1zm29 0h1v1a22 22 0 0 1-1 3q0 1 0 0a1 1 35 0 1 0-1v-1a4 4 0 0 1 0-2m-27 0zm9 1v1-1zm1 1h1zm1 0zm28 0a2 2 0 0 1-1 0 3 3 0 0 0 0 1v-1a2 2 0 0 0 1 0m-48 1h1a31 31 0 0 0-1 3l-3 3 1-1v-1a23 23 0 0 1 2-4m11 1a16 16 0 0 1 0 2l-1 1a6 6 0 0 1 0 1l-1 1a2 2 0 0 1-1 1v-1a7 7 0 0 1 1-3l1-1 1-1zm20 0a33 33 0 0 1-3 2 10 10 0 0 1 0 1v1a7 7 0 0 1-1 3h-1v-2l1-1v-2l1-1v1l3-2zm-79 1a1 1 0 0 1 1 0 1 1 0 0 0-1 0m3 0v1-1m32 1a3 3 0 0 1-1 2 6 6 0 0 0-1 1v1l-1 1v-2l2-3h1zm39 1a2 2 0 0 0-1 1l1-1m-72 0v1-1m7 1h1-1m57 2v1a16 16 0 0 1-1 1v2a4 4 0 0 1-2 1v-1l2-4a3 3 0 0 1 1 0m-44 0v1a9 9 0 0 1-2 3l-1 1q0 1 0 0l1-3 2-1a1 1 0 0 1 0-1zm-7 2 1 1h1-1a9 9 0 0 0-1-1m-6 1 4 2a95 95 0 0 0 4 2 95 95 0 0 1-4-2 88 88 0 0 1-4-2m78 0zm-2 0-1 2 1-2m-64 2h1-1m40 0h-1 1m-17 0v1a1 1 0 0 1 0 1 1 1 0 0 0-1 0 10 10 0 0 1-1 3h-1q0 1 0 0l2-3v-1l1-1m-12 0h1v1a2 2 0 0 1 0-1h-1zm2 1h2a9 9 0 0 1 3 0h1a3 3 0 0 1-1 0 9 9 0 0 0-3 0 52 52 0 0 1-2 0zm-8 0zm43 0v1l-1 1v3a3 3 0 0 1-1 0 7 7 0 0 1 0-2l1-2v-1h1m-16 0 1 1a114 114 0 0 1-2 4l-1-1v-1l2-2v-1m-21 1v1l-1 1-1 2h-1a16 16 0 0 1 3-4zm44 1zm0 2zm-56 0zm22 7a6 6 0 0 0-1 0h1"/></svg>